<svg xmlns="http://www.w3.org/2000/svg" version="1.1" xmlns:xlink="http://www.w3.org/1999/xlink" xmlns:svgjs="http://svgjs.dev/svgjs" width="2000" height="646" viewBox="0 0 2000 646"><g transform="matrix(1,0,0,1,-1.2112696095522324,0.3583006898837766)"><svg viewBox="0 0 396 128" data-background-color="#ffffff" preserveAspectRatio="xMidYMid meet" height="646" width="2000" xmlns="http://www.w3.org/2000/svg" xmlns:xlink="http://www.w3.org/1999/xlink"><g id="tight-bounds" transform="matrix(1,0,0,1,0.24008861730862918,-0.07088417710002659)"><svg viewBox="0 0 395.52 128.14175619214825" height="128.14175619214825" width="395.52"><g><svg viewBox="0 0 395.52 128.14175619214825" height="128.14175619214825" width="395.52"><g><svg viewBox="0 0 395.52 128.14175619214825" height="128.14175619214825" width="395.52"><g id="textblocktransform"><svg viewBox="0 0 395.52 128.14175619214825" height="128.14175619214825" width="395.52" id="textblock"><g><svg viewBox="0 0 395.52 128.14175619214825" height="128.14175619214825" width="395.52"><path d="M394.594 27.484C392.735 14.183 387.435 10.485 387.435 10.485 371.165-3.215 350.86-0.262 332.619 1.706 300.414 1.786 268.339 4.713 236.208 6.282 168.767 6.521 100.749 2.584 33.643 12.294 27.339 15.274-6.54 12.879 1.121 29.186 3.129 35.97 10.456 43.498 10.232 49.723 11.236 50.814 12.631 48.313 13.226 49.883 15.309 54.113 18.711 52.118 21.501 54.618 17.614 61.295 20.403 66.855 23.062 72.681 18.377 74.197 12.371 73.479 9.675 78.507 9.396 82.151 7.89 81.46 6.235 81.3 5.026 81.194 2.59 81.593 2.999 82.737 4.394 86.647-1.594 88.908 2.162 92.739-0.422 96.889 3.948 100.48 3.353 104.976 3.278 105.88 3.687 106.652 4.338 106.865 7.22 108.009 3.018 110.243 3.464 112.664 33.029 129.211 65.104 117.772 95.394 125.38 103.259 120.059 97.346 127.269 100.489 126.151 102.943 124.848 104.728 130.248 107.499 127.189 107.927 126.311 107.276 124.236 108.8 124.635 109.6 124.848 110.307 124.795 110.418 123.571 110.586 121.735 109.117 122.879 108.726 121.922 112.947 117.08 111.906 128.599 115.866 128.12 115.68 126.71 114.528 124.688 116.889 124.954 119.232 122.932 119.306 121.256 121.389 125.805 121.463 126.79 121.835 127.481 122.43 127.96 128.938 123.012 135.409 129.716 142.233 127.481 146.417 125.034 150.433 128.812 154.672 127.88 156.16 127.136 157.666 125.805 159.098 128.04 176.632 128.519 195.319 126.524 211.943 128.12 256.364 125.14 303.836 129.344 350.674 125.406 361.719 123.89 373.192 121.735 383.958 120.006 383.958 120.006 392.679 115.271 392.679 93.989S394.538 75.368 394.817 58.422C395.096 41.477 396.398 40.785 394.538 27.484Z" opacity="1" fill="#096a2e" data-fill-palette-color="tertiary"></path><g transform="matrix(1,0,0,1,55.76832,26.230666666666668)"><svg width="283.98335999999995" viewBox="3.1 -36 136.69 36.433333333332" height="75.68042285881491" data-palette-color="#ffffff"><path d="M4.2 0Q3.45 0 3.33-0.33 3.2-0.65 3.25-1.7L3.25-1.7Q3.25-3.35 3.2-4.85L3.2-4.85 3.1-11Q3.1-12.4 3.2-13.93 3.3-15.45 3.35-16.65L3.35-16.65Q3.6-20.25 3.6-21.7L3.6-21.7 3.7-31.1 3.65-33.8Q3.65-35.55 3.9-35.8L3.9-35.8Q4.05-35.95 4.25-35.95L4.25-35.95Q4.35-35.95 4.6-35.88 4.85-35.8 5.15-35.8L5.15-35.8 6.7-35.85Q7.65-35.85 8.1-35.75L8.1-35.75Q8.55-35.6 8.75-35.02 8.95-34.45 9.1-33.73 9.25-33 9.35-32.6L9.35-32.6Q9.6-31.25 10.53-28.85 11.45-26.45 12.3-24.65L12.3-24.65Q13-23.45 14.18-20.78 15.35-18.1 15.85-16.55L15.85-16.55Q16.15-15.75 16.7-14.55L16.7-14.55 17.45-12.75 18.5-10.4Q19.95-13.25 20.6-14.55L20.6-14.55 23.85-21.05 26.1-25.55Q27.85-29.15 28.45-30.2L28.45-30.2Q29.4-32.15 30.45-33.83 31.5-35.5 31.95-35.5L31.95-35.5Q32.35-35.5 32.35-34.85L32.35-34.85Q32.35-34.25 32.1-33.25L32.1-33.25 31.9-32Q31.7-30.65 31.7-20L31.7-20Q31.7-17.65 31.58-14.3 31.45-10.95 31.35-9.85L31.35-9.85Q31.25-8.55 31.25-6L31.25-6 31.3-1.15 31.3-0.9Q31.3-0.3 31-0.4L31-0.4 30.9-0.4Q30.65-0.4 30.33-0.35 30-0.3 29.65-0.3L29.65-0.3Q29.45-0.35 29.38-0.55 29.3-0.75 29.3-1.25L29.3-1.25 29.3-4.2Q29.3-9.3 29.4-10.2L29.4-10.2Q29.5-11.25 29.63-14.1 29.75-16.95 29.75-18.7L29.75-18.7Q29.7-19.15 29.8-21.5L29.8-21.5 29.85-23.3 29.95-26.9Q29.6-26.4 29.35-25.85L29.35-25.85Q28.85-25 28.4-24L28.4-24 27.9-23Q27.05-21.35 25.95-19.13 24.85-16.9 24.05-15.35L24.05-15.35Q23.15-13.55 21.78-10.73 20.4-7.9 19.65-6.25L19.65-6.25Q18.35-3.2 18.15-3.2L18.15-3.2Q18-3.2 17.7-3.7 17.4-4.2 17.3-4.35L17.3-4.35Q16.95-4.9 16.2-6.68 15.45-8.45 15-9.8L15-9.8Q14.7-10.7 12.4-14.85L12.4-14.85Q10.6-18.3 10.55-18.45L10.55-18.45Q10.05-19.45 9.2-21.8L9.2-21.8Q8.65-23.05 8.35-24L8.35-24 8.25-21.8 8.15-18.4 8.05-8.55 8-0.75Q8-0.3 7.75-0.2 7.5-0.1 7.15-0.13 6.8-0.15 6.6-0.15L6.6-0.15 5.5-0.1Q4.6 0 4.2 0L4.2 0ZM35.75 0Q35.3 0 35.5-0.65L35.5-0.65Q35.5-0.8 35.55-0.9L35.55-0.9Q35.55-1 35.6-1.15 35.65-1.3 35.75-1.6L35.75-1.6 36.2-3.45Q36.3-3.75 36.55-4.5 36.8-5.25 36.9-5.9L36.9-5.9Q37.15-7.1 37.85-9.55L37.85-9.55 38.25-10.95Q39.2-14.05 39.45-15.3L39.45-15.3 40.15-17.95Q40.65-19.6 40.75-20.05L40.75-20.05Q41.1-21.55 41.75-23.8L41.75-23.8 42.1-25.2 42.4-26.25Q42.9-27.95 43.25-28.7L43.25-28.7Q43.35-29 43.97-30.78 44.6-32.55 44.8-33.6L44.8-33.6Q45.15-34.8 45.52-35.4 45.9-36 46.55-36L46.55-36Q46.8-36 47.05-35.55 47.3-35.1 47.55-34.45 47.8-33.8 47.9-33.5L47.9-33.5Q48.3-32.55 49.3-28.75L49.3-28.75 49.7-27.35Q49.75-26.95 51.35-22.45L51.35-22.45 52.3-19.7 53.2-17.35Q54.6-13.4 55-12.55L55-12.55Q56.75-7.25 57.05-6.15L57.05-6.15Q57.4-4.85 58.17-2.9 58.95-0.95 59.05-0.7L59.05-0.7Q59.2-0.35 59.2-0.2L59.2-0.2Q59.2 0 58.65 0L58.65 0 55.85 0Q55.65 0 55.52-0.08 55.4-0.15 55.3-0.45L55.3-0.45Q55.1-1 54.75-2.25L54.75-2.25Q54.3-3.5 54.15-4.5L54.15-4.5Q54-5.25 53.67-6.3 53.35-7.35 53.1-7.9L53.1-7.9Q52.65-8.85 52.3-10.05L52.3-10.05 51.85-11.5Q51.6-12.05 51.47-12.18 51.35-12.3 51.05-12.3L51.05-12.3Q50-12.3 49.5-12.25L49.5-12.25 47.35-12.15Q46.95-12.1 43.65-12.1L43.65-12.1 40.6-12.1 40.5-12.1Q40.2-12.1 40.05-11.55L40.05-11.55 39.95-11.05 39.75-10.1Q39.65-9.8 39.1-7.2L39.1-7.2Q38.95-6.35 38.6-5L38.6-5Q38.5-4 38.15-3.35L38.15-3.35Q38.05-3.2 37.9-2.65 37.75-2.1 37.65-1.75L37.65-1.75Q37.5-1.35 37.3-0.45L37.3-0.45Q37.25-0.4 37.2-0.23 37.15-0.05 37.05-0.03 36.95 0 36.75 0L36.75 0 35.75 0ZM42.4-15.4L45.3-15.5Q45.9-15.6 47-15.6L47-15.6 49.7-15.55Q50.35-15.55 50.35-15.9L50.35-15.9Q50.35-16.15 50-17L50-17Q49.7-17.75 49.1-19.8L49.1-19.8Q48.65-21.45 48.2-22.65L48.2-22.65Q47.7-24.15 47.12-26.2 46.55-28.25 46.45-28.85L46.45-28.85Q45.7-31.5 45.45-31.5L45.45-31.5Q45.3-31.5 44.95-30.15L44.95-30.15 44.65-29.05Q44.3-27.7 43.75-25.68 43.2-23.65 42.75-22.25L42.75-22.25Q42.45-20.95 41.92-18.98 41.4-17 41.1-16.25L41.1-16.25Q41-15.95 41-15.9L41-15.9Q41-15.55 41.32-15.45 41.65-15.35 41.97-15.38 42.3-15.4 42.4-15.4L42.4-15.4ZM63.45 0.4Q62.35 0.4 62.35-0.6L62.35-0.6 62.35-4.5 62.55-21.25Q62.55-23.15 62.3-28.15L62.3-28.15 62.1-34.3Q62.1-35.15 62.75-35.15L62.75-35.15Q63-35.15 63.6-35 64.2-34.85 64.55-34.85L64.55-34.85Q65.95-34.65 67.9-34.65L67.9-34.65Q69.25-34.65 70.45-34.8L70.45-34.8Q71.2-34.9 71.5-34.7 71.8-34.5 71.8-34.05L71.8-34.05Q71.8-33.7 71.72-33.33 71.65-32.95 71.65-32.5L71.65-32.5 71.55-29.8Q71.35-25.7 71.35-23.65L71.35-23.65 71.45-16.1Q71.5-14.3 71.5-12.4L71.5-12.4 71.4-6.95 71.35-5.95 71.4-4.55 71.5-2.8 78.65-2.55 84.6-2.5 84.7-2.5Q85-2.5 85.05-2.4 85.1-2.3 85.07-2.13 85.05-1.95 85.05-1.85L85.05-1.85Q85-1.65 85.07-1.1 85.15-0.55 85.15-0.1L85.15-0.1Q85.15 0.25 84.9 0.35 84.65 0.45 84.27 0.43 83.9 0.4 83.7 0.4L83.7 0.4 81.05 0.25Q77.55-0.05 76.1-0.05L76.1-0.05Q74.5-0.05 68 0.25L68 0.25 63.45 0.4ZM88.84 0.1Q88.54 0.1 88.49-0.08 88.44-0.25 88.44-0.75L88.44-0.75Q88.39-1.3 88.39-2.6L88.39-2.6Q88.39-3 88.34-3.48 88.29-3.95 88.29-4.75L88.29-4.75 88.29-11.6Q88.29-12.6 88.37-13.55 88.44-14.5 88.44-14.95L88.44-14.95Q88.64-17.25 88.64-19.35L88.64-19.35Q88.64-21.95 88.49-23.45L88.49-23.45Q88.39-25.15 88.39-26.55L88.39-26.55Q88.39-29.7 88.54-33.9L88.54-33.9Q88.54-34.55 88.79-34.77 89.04-35 89.49-35L89.49-35 90.24-34.95Q90.69-34.95 91.69-34.88 92.69-34.8 94.14-34.8L94.14-34.8Q95.79-34.8 98.04-35.05L98.04-35.05Q100.74-35.25 101.64-35.25L101.64-35.25Q103.69-35.25 105.39-35.1L105.39-35.1 107.19-35.05Q107.84-35.05 108.04-34.75 108.24-34.45 108.24-33.65L108.24-33.65Q108.24-33.2 108.34-32.1L108.34-32.1Q108.44-30.8 108.44-29.85L108.44-29.85Q108.44-28.85 108.29-28L108.29-28Q108.24-27.25 107.59-27.25L107.59-27.25Q107.39-27.25 107.04-27.35 106.69-27.45 106.49-27.5L106.49-27.5Q105.74-27.65 102.14-27.65L102.14-27.65 100.24-27.7Q99.59-27.75 98.34-27.75L98.34-27.75Q97.44-27.75 96.99-27.7L96.99-27.7Q95.49-27.6 94.34-27.6L94.34-27.6 91.69-27.65Q91.29-27.65 91.24-27.48 91.19-27.3 91.19-26.65L91.19-26.65Q91.19-25.75 91.14-25.1L91.14-25.1Q91.04-23.1 91.04-21.85L91.04-21.85 91.04-18.9Q91.04-17.85 91.09-17.3L91.09-17.3Q91.49-17.25 92.44-17.25L92.44-17.25Q93.29-17.2 95.94-17.2L95.94-17.2Q97.04-17.2 99.14-17.3L99.14-17.3Q100.74-17.4 101.24-17.4L101.24-17.4Q101.94-17.4 102.64-17.32 103.34-17.25 103.69-17.25L103.69-17.25Q104.34-17.25 104.34-16.65L104.34-16.65Q104.34-16.45 104.29-16.07 104.24-15.7 104.24-15.1L104.24-15.1 104.29-12.45Q104.29-12 104.19-11.83 104.09-11.65 103.84-11.65L103.84-11.65Q103.69-11.65 103.42-11.73 103.14-11.8 102.94-11.8L102.94-11.8Q102.49-11.8 101.27-11.85 100.04-11.9 97.94-11.9L97.94-11.9Q95.69-11.9 94.04-11.7 92.39-11.5 92.04-11.5L92.04-11.5Q91.49-11.5 91.39-11.55L91.39-11.55Q91.14-11.55 91.09-11.6L91.09-11.6 91.09-6.6Q91.44-6.6 91.64-6.65L91.64-6.65 93.04-6.7 98.94-6.75Q100.74-6.75 101.79-6.7L101.79-6.7 105.24-6.65 107.34-6.7Q107.94-6.7 108.14-6.43 108.34-6.15 108.34-5.65L108.34-5.65 108.29-4.65 108.24-1.15Q108.24-0.35 107.89-0.18 107.54 0 106.89-0.03 106.24-0.05 105.84-0.05L105.84-0.05Q103.69-0.05 102.14-0.1L102.14-0.1 97.04-0.15Q96.44-0.15 91.04 0L91.04 0 89.14 0.05 88.84 0.1ZM132.24 0.2Q131.64 0.2 131.22 0 130.79-0.2 130.29-0.7L130.29-0.7Q129.94-1 127.64-4L127.64-4Q125.84-6.45 125.14-7.2L125.14-7.2Q124.24-8 122.49-10.15L122.49-10.15 120.69-12.2Q120.69-10.7 120.64-10.05L120.64-10.05 120.54-6.85 120.49-3.4Q120.49-1.55 120.64-1L120.64-1Q120.69-0.85 120.69-0.65L120.69-0.65Q120.69-0.3 120.52-0.23 120.34-0.15 119.99-0.15L119.99-0.15 117.99-0.15 116.79-0.1Q115.49 0 114.89 0L114.89 0Q114.39 0 114.29-0.05L114.29-0.05Q113.94-0.05 113.94-0.35L113.94-0.35Q113.94-0.5 114.14-1.1L114.14-1.1Q114.24-1.45 114.04-2.7L114.04-2.7Q113.99-3 113.94-3.45 113.89-3.9 113.89-4.4L113.89-4.4Q113.94-7.15 114.07-13.18 114.19-19.2 114.34-20.05L114.34-20.05Q114.49-21.4 114.49-25.05L114.49-25.05Q114.49-26.95 114.44-27.4L114.44-27.4Q114.39-27.8 114.39-29.5L114.39-29.5Q114.39-31 114.47-32.48 114.54-33.95 114.64-34.4L114.64-34.4Q114.69-34.9 115.19-34.9L115.19-34.9Q115.44-34.9 115.69-34.83 115.94-34.75 116.19-34.75L116.19-34.75Q117.14-34.75 117.64-34.7L117.64-34.7Q118.04-34.7 118.59-34.68 119.14-34.65 119.89-34.7L119.89-34.7 120.19-34.7Q120.59-34.7 120.72-34.55 120.84-34.4 120.84-34.1L120.84-34.1 120.84-32.25 120.84-30.75 120.84-28.7Q120.84-22.85 120.64-21.25L120.64-21.25Q120.54-20.15 120.54-19.5L120.54-19.5 120.59-17.85 120.69-16.15 121.49-17Q121.74-17.3 122.94-18.5L122.94-18.5Q123.54-19.05 125.14-20.78 126.74-22.5 127.64-23.5L127.64-23.5Q128.04-24.05 129.54-25.7 131.04-27.35 132.29-28.6L132.29-28.6Q133.09-29.5 133.84-30.25L133.84-30.25Q136.79-33.5 136.99-33.85L136.99-33.85Q137.49-34.6 138.04-34.7L138.04-34.7Q138.19-34.7 138.67-34.73 139.14-34.75 139.44-34.7L139.44-34.7Q139.79-34.65 139.79-34.35L139.79-34.35Q139.79-34.15 139.54-33.9L139.54-33.9Q139.44-33.8 138.24-32.58 137.04-31.35 136.39-30.8L136.39-30.8Q135.89-30.35 133.47-27.4 131.04-24.45 130.59-23.8L130.59-23.8Q129.29-22.35 127.44-20.4L127.44-20.4 124.74-17.6Q124.49-17.95 126.49-15.55L126.49-15.55Q127.89-13.85 129.14-12.6L129.14-12.6Q129.64-12.1 132.14-9.1L132.14-9.1Q135.34-5.35 135.69-5.05L135.69-5.05Q136.19-4.6 138.39-1.95L138.39-1.95 139.39-0.75Q139.54-0.55 139.54-0.35L139.54-0.35Q139.54 0.05 138.69 0.05L138.69 0.05 132.24 0.2Z" opacity="1" transform="matrix(1,0,0,1,0,0)" fill="#ffffff" class="wordmark-text-0" data-fill-palette-color="quaternary" id="text-0"></path></svg></g></svg></g></svg></g></svg></g><g></g></svg></g><defs></defs></svg><rect width="395.52" height="128.14175619214825" fill="none" stroke="none" visibility="hidden"></rect></g></svg></g></svg>